<!DOCTYPE svg PUBLIC "-//W3C//DTD SVG 20010904//EN" "http://www.w3.org/TR/2001/REC-SVG-20010904/DTD/svg10.dtd">
<svg version="1.0" xmlns="http://www.w3.org/2000/svg" width="128px" height="128px" viewBox="0 0 1280 1280" preserveAspectRatio="xMidYMid meet">
<g id="layer101" fill="#2a549b" stroke="none">
 <path d="M605 1271 c-38 -16 -54 -47 -109 -226 -33 -105 -63 -184 -73 -190 -133 -83 -208 -194 -232 -342 -14 -88 10 -213 57 -292 143 -243 491 -295 703 -104 84 76 149 221 149 333 -1 168 -98 327 -248 406 -1 0 -25 81 -52 179 -27 98 -57 189 -65 202 -25 38 -83 53 -130 34z"/>
 </g>
<g id="layer102" fill="#2c74b4" stroke="none">
 <path d="M613 1233 c-21 -10 -36 -28 -46 -56 -13 -35 -88 -274 -103 -328 -2 -9 -26 -30 -53 -48 -93 -60 -174 -171 -188 -258 -3 -18 -10 -36 -14 -39 -17 -10 -9 -99 15 -176 50 -160 146 -255 308 -307 87 -27 132 -27 227 4 176 57 280 175 312 355 10 57 9 78 -5 142 -25 111 -76 189 -170 261 -42 32 -76 64 -76 71 0 30 -94 342 -107 358 -26 29 -66 38 -100 21z m67 -204 c17 -57 29 -108 27 -113 -2 -5 -11 21 -21 58 -16 57 -21 67 -39 64 -15 -2 -26 -19 -43 -68 -27 -79 -31 -67 -5 16 11 32 25 80 32 106 7 26 15 46 16 44 2 -2 17 -50 33 -107z"/>
 </g>
<g id="layer103" fill="#0994d5" stroke="none">
 <path d="M593 1218 c-12 -14 -45 -98 -77 -201 -31 -98 -56 -179 -56 -181 0 -1 -22 -17 -48 -34 -94 -61 -171 -167 -187 -258 -4 -21 -12 -44 -17 -51 -22 -28 14 -194 59 -270 31 -54 91 -115 145 -149 56 -35 172 -73 226 -74 57 0 188 43 246 81 134 89 215 273 186 422 -22 118 -78 209 -170 278 -27 21 -54 39 -60 41 -5 1 -33 86 -61 188 -56 203 -71 230 -133 230 -21 0 -40 -8 -53 -22z m97 -206 c19 -70 35 -131 36 -137 0 -5 4 -17 7 -25 3 -8 5 -30 4 -47 l-2 -33 -91 0 c-90 0 -92 1 -96 25 -3 14 1 30 8 36 7 6 11 16 8 24 -6 14 76 285 85 285 3 0 22 -57 41 -128z"/>
 </g>
<g id="layer104" fill="#c7cfdd" stroke="none">
 <path d="M593 1218 c-12 -14 -45 -98 -77 -201 -31 -98 -56 -179 -56 -181 0 -1 -22 -17 -48 -34 -94 -61 -171 -167 -187 -258 -4 -21 -12 -44 -17 -51 -22 -28 14 -194 59 -270 31 -54 91 -115 145 -149 56 -35 172 -73 226 -74 57 0 188 43 246 81 134 89 215 273 186 422 -22 118 -78 209 -170 278 -27 21 -54 39 -60 41 -5 1 -33 86 -61 188 -56 203 -71 230 -133 230 -21 0 -40 -8 -53 -22z m101 -221 c67 -244 63 -233 96 -247 123 -51 212 -209 196 -347 -13 -113 -85 -217 -188 -269 -76 -40 -199 -45 -283 -13 -81 30 -164 112 -193 192 -61 163 4 344 154 429 l53 30 36 116 c67 216 79 252 84 252 4 0 24 -64 45 -143z"/>
 </g>
<g id="layer105" fill="#f1f3f4" stroke="none">
 <path d="M610 1227 c-28 -14 -67 -115 -140 -367 -8 -27 -21 -41 -59 -63 -28 -15 -69 -51 -93 -80 -59 -71 -80 -116 -103 -222 -12 -54 -11 -68 9 -150 26 -104 40 -129 110 -203 55 -58 128 -100 218 -126 61 -17 143 -21 152 -7 3 5 23 12 43 16 133 24 254 136 303 278 31 91 34 143 13 222 -35 129 -90 210 -187 271 -46 29 -51 38 -86 164 -5 19 -19 63 -30 98 -10 35 -22 78 -25 95 -8 38 -22 60 -52 75 -27 15 -42 15 -73 -1z m50 -94 c0 -9 4 -30 10 -47 5 -17 16 -56 25 -86 15 -55 21 -75 50 -181 12 -47 20 -59 45 -69 122 -51 206 -190 198 -329 -9 -170 -137 -301 -312 -320 -312 -34 -500 335 -289 569 25 28 68 62 94 76 41 20 50 30 60 66 11 43 38 129 78 248 11 36 21 73 21 83 0 10 5 15 10 12 6 -3 10 -13 10 -22z"/>
 </g>

</svg>